<?xml version="1.0" encoding="utf-8"?>
<!-- Generator: Adobe Illustrator 21.0.0, SVG Export Plug-In . SVG Version: 6.00 Build 0)  -->
<svg version="1.1" id="Layer_1" xmlns="http://www.w3.org/2000/svg" xmlns:xlink="http://www.w3.org/1999/xlink" x="0px" y="0px"
	 viewBox="0 0 182.7 62.9" style="enable-background:new 0 0 182.7 62.9;" xml:space="preserve">
<style type="text/css">
	.st0{fill:#F28E6A;}
	.st1{fill:#474843;}
	.st2{fill:#464742;}
</style>
<title>Asset 4</title>
<g id="Layer_2">
	<g id="Layer_1-2">
		<path class="st0" d="M41.7,32.4c0,5.5-4,8.2-12.1,8.2H7.3v-6.4h22.3c3,0,4.5-0.6,4.5-1.9v-0.9c0-1-1.4-1.5-4.1-1.5h-9.3
			c-9.1,0-13.6-2.6-13.6-8v-1.4C7,17.6,8.8,15,11.6,14.1c2.7-0.8,5.6-1.2,8.4-1.1h7.4v6.5h-7.1c-3.9,0-5.9,0.4-5.9,1.2v1.2
			c0,0.8,0.9,1.3,2.7,1.4c0.5,0.1,1.7,0.1,3.6,0.1h9.5c7.6,0,11.4,2.6,11.4,7.8L41.7,32.4z"/>
		<path class="st0" d="M82.7,40.6H58.2c-4.1,0-7.2-0.5-9.4-1.4c-3-1.1-5-4.1-4.8-7.3V21.7c0-5.8,4.3-8.7,13-8.7h25.8v6.5H56.6
			c-3.5,0-5.3,0.7-5.3,2.1v10.2c0,1.7,2.3,2.5,7,2.5h24.4V40.6z"/>
		<path class="st0" d="M124.8,32c0,5.7-4.2,8.6-12.5,8.6h-14c-2.9,0-5.7-0.6-8.3-1.9c-3.1-1.5-4.6-3.7-4.6-6.5v-3.3
			c0-3,1.5-5.2,4.4-6.7c2.6-1.3,5.5-1.9,8.4-1.8h18.7c0-0.9-1.5-1.3-4.6-1.3h-8V13h8c2.9-0.1,5.8,0.5,8.3,1.9c2.6,1.3,4.2,4,4.1,7
			L124.8,32z M117.5,28.9v-0.8v-1.2H98.1c-3.6,0-5.3,0.9-5.3,2.8v1.9c0,1.7,1.8,2.5,5.5,2.5H113c2.1,0,3.5-0.4,4-1.1
			C117.3,32.5,117.5,31.1,117.5,28.9L117.5,28.9z"/>
		<path class="st0" d="M135.5,40.8h-7.6v-35h7.6V40.8z"/>
		<path class="st0" d="M176.2,30.4h-29.9c0,2.5,3.6,3.8,10.7,3.8h1.7h1.3v6.5h-5.3c-6.1,0-10.2-0.9-12.5-2.6
			c-2.2-1.5-3.5-3.9-3.5-6.5V22c0-3.3,1.7-5.7,5.1-7.3c3-1.3,6.2-1.9,9.4-1.8h10.7c2.8-0.1,5.5,0.5,8,1.7c2.9,1.4,4.3,3.5,4.3,6.3
			V30.4z M169.1,23.8v-2.1c0-1.6-2-2.4-6-2.4h-10.7c-4.2,0-6.3,0.8-6.3,2.3v2.2H169.1z"/>
		<path class="st1" d="M40.7,31.4c0,5.5-4,8.2-12.1,8.2H6.3v-6.4h22.3c3,0,4.5-0.6,4.5-1.9v-0.9c0-1-1.4-1.5-4.1-1.5h-9.3
			c-9.1,0-13.6-2.6-13.6-8v-1.4c0-2.9,1.9-5.5,4.7-6.3c2.7-0.8,5.6-1.2,8.4-1.1h7.4v6.5h-7.1c-3.9,0-5.9,0.4-5.9,1.2V21
			c0,0.8,0.9,1.3,2.7,1.4c0.5,0.1,1.7,0.1,3.6,0.1h9.5c7.6,0,11.4,2.6,11.4,7.8L40.7,31.4z"/>
		<path class="st2" d="M81.8,39.7H57.3c-4.1,0-7.2-0.5-9.4-1.4c-3-1.1-5-4.1-4.8-7.3V20.8c0-5.8,4.3-8.7,13-8.7h25.8v6.5H55.7
			c-3.5,0-5.3,0.7-5.3,2.1v10.2c0,1.7,2.3,2.5,7,2.5h24.4V39.7z"/>
		<path class="st1" d="M123.9,31c0,5.7-4.2,8.6-12.5,8.6h-14c-2.9,0-5.7-0.6-8.3-1.9c-3.1-1.5-4.6-3.7-4.6-6.5V28
			c0-3,1.5-5.2,4.4-6.7c2.6-1.3,5.5-1.9,8.4-1.8H116c0-0.9-1.5-1.3-4.6-1.3h-8V12h8c2.9-0.1,5.8,0.5,8.3,1.9c2.6,1.3,4.2,4,4.1,7
			L123.9,31z M116.6,28v-0.8V26H97.1c-3.6,0-5.3,0.9-5.3,2.8v1.9c0,1.7,1.8,2.5,5.5,2.5H112c2.1,0,3.5-0.4,4-1.1
			C116.4,31.6,116.6,30.2,116.6,28L116.6,28z"/>
		<path class="st1" d="M134.6,39.8H127v-35h7.6V39.8z"/>
		<path class="st1" d="M175.3,29.5h-29.9c0,2.5,3.6,3.8,10.7,3.8h1.7h1.3v6.5h-5.3c-6.1,0-10.2-0.9-12.5-2.6
			c-2.2-1.5-3.5-3.9-3.5-6.5v-9.6c0-3.3,1.7-5.7,5.1-7.3c3-1.3,6.2-1.9,9.4-1.8H163c2.8-0.1,5.5,0.5,8,1.7c2.9,1.4,4.3,3.5,4.3,6.3
			V29.5z M168.2,22.9v-2.1c0-1.6-2-2.4-6-2.4h-10.7c-4.2,0-6.3,0.8-6.3,2.3v2.2H168.2z"/>
	</g>
</g>
<g>
	<path class="st0" d="M25.5,49.4c2.7,0,4.8,1.8,4.8,4.3s-2,4.3-4.8,4.3c-2.9,0-4.9-1.8-4.9-4.3C20.6,51.1,22.8,49.4,25.5,49.4z
		 M25.5,55.5c1.1,0,1.9-0.8,1.9-1.9c0-1.1-0.8-1.9-1.9-1.9s-1.9,0.8-1.9,1.9S24.3,55.5,25.5,55.5z"/>
	<path class="st0" d="M33.2,47.9c0-2.4,1.1-4,3.2-4c1.4,0,2.3,0.7,2.3,0.7l-1,2c0,0-0.4-0.2-0.8-0.2c-0.7,0-0.9,0.5-0.9,1.6v1.6h1.9
		v2.1H36v5.9h-2.8v-5.9H32v-2.1h1.2V47.9z"/>
	<path class="st0" d="M40.2,47.9c0-2.4,1.1-4,3.2-4c1.4,0,2.3,0.7,2.3,0.7l-1,2c0,0-0.4-0.2-0.8-0.2c-0.7,0-0.9,0.5-0.9,1.6v1.6h1.9
		v2.1H43v5.9h-2.8v-5.9H39v-2.1h1.2V47.9z"/>
	<path class="st0" d="M49.9,46.3c0,0.9-0.7,1.7-1.7,1.7c-0.9,0-1.7-0.7-1.7-1.7c0-0.9,0.7-1.7,1.7-1.7
		C49.1,44.6,49.9,45.4,49.9,46.3z M46.8,57.7h2.8v-8.1h-2.8V57.7z"/>
	<path class="st0" d="M55.1,53.6c0,1.1,0.9,2,1.9,2c0.8,0,1.4-0.4,1.4-0.4l0.9,1.9c0,0-0.9,0.7-2.7,0.7c-2.3,0-4.5-1.9-4.5-4.2
		c0-2.4,2.1-4.3,4.5-4.3c1.8,0,2.7,0.8,2.7,0.8L58.4,52c0,0-0.5-0.4-1.4-0.4C55.9,51.6,55.1,52.5,55.1,53.6z"/>
	<path class="st0" d="M63.9,54c0,1.2,1,1.7,1.7,1.7c0.9,0,1.3-0.2,2-0.9l2,1c-0.9,1.5-2.4,2.1-4.2,2.1C63,57.9,61,56,61,53.6
		s2-4.3,4.4-4.3c2.5,0,4.3,1.4,4.3,4.3c0,0.1,0,0.3,0,0.4H63.9z M67.1,52.5c-0.1-0.8-0.7-1.3-1.5-1.3c-1,0-1.5,0.6-1.5,1.3H67.1z"/>
	<path class="st0" d="M85.2,47.3h-4.5v2.6h4.2v2.6h-4.2v5.2h-3v-13h7.5V47.3z"/>
	<path class="st0" d="M90.5,53.4c0,1.6,0.4,2.2,1.6,2.2s1.6-0.6,1.6-2.2v-3.8h2.8v4.5c0,2.7-1.4,3.8-4.4,3.8s-4.4-1.1-4.4-3.8v-4.5
		h2.8V53.4z"/>
	<path class="st0" d="M99.3,49.6h2.8v1.2l0,0c0,0,0.9-1.4,2.5-1.4c1,0,1.8,0.5,1.8,0.5l-1.2,2.4c0,0-0.5-0.4-1.4-0.4
		c-1.4,0-1.7,1.4-1.7,1.6v4.2h-2.8C99.3,57.7,99.3,49.6,99.3,49.6z"/>
	<path class="st0" d="M108.4,49.6h2.8v0.8l0,0c0.6-0.6,1.4-1.1,2.3-1.1c1.5,0,3.5,0.7,3.5,3v5.3h-2.8V53c0-0.8-0.6-1.6-1.4-1.6
		s-1.7,0.8-1.7,1.6v4.6h-2.8L108.4,49.6L108.4,49.6z"/>
	<path class="st0" d="M123,46.3c0,0.9-0.7,1.7-1.7,1.7c-0.9,0-1.7-0.7-1.7-1.7c0-0.9,0.7-1.7,1.7-1.7S123,45.4,123,46.3z
		 M119.9,57.7h2.8v-8.1h-2.8V57.7z"/>
	<path class="st0" d="M126.3,46.6h2.8v3h1.7v2.1h-1.7v2.6c0,0.8,0.2,1.1,0.6,1.1c0.4,0,0.7-0.3,0.7-0.3l0.7,2.2c0,0-0.9,0.5-2,0.5
		c-2.2,0-2.8-1.7-2.8-3.1v-3.1h-1.2v-2.1h1.2V46.6z"/>
	<path class="st0" d="M135.9,53.4c0,1.6,0.4,2.2,1.6,2.2s1.6-0.6,1.6-2.2v-3.8h2.8v4.5c0,2.7-1.4,3.8-4.4,3.8s-4.4-1.1-4.4-3.8v-4.5
		h2.8L135.9,53.4L135.9,53.4z"/>
	<path class="st0" d="M144.8,49.6h2.8v1.2l0,0c0,0,0.9-1.4,2.5-1.4c1,0,1.8,0.5,1.8,0.5l-1.2,2.4c0,0-0.5-0.4-1.4-0.4
		c-1.4,0-1.7,1.4-1.7,1.6v4.2h-2.8L144.8,49.6L144.8,49.6z"/>
	<path class="st0" d="M156,54c0,1.2,1,1.7,1.7,1.7c0.9,0,1.3-0.2,2-0.9l2,1c-0.9,1.5-2.4,2.1-4.2,2.1c-2.4,0-4.4-1.9-4.4-4.3
		c0-2.4,2-4.3,4.4-4.3c2.5,0,4.3,1.4,4.3,4.3c0,0.1,0,0.3,0,0.4H156z M159.1,52.5c-0.1-0.8-0.7-1.3-1.5-1.3c-1,0-1.5,0.6-1.5,1.3
		H159.1z"/>
</g>
</svg>
